<svg xmlns="http://www.w3.org/2000/svg" width="200" zoomAndPan="magnify" viewBox="0 0 150 37.5" height="50"
     preserveAspectRatio="xMidYMid meet" version="1.0"><defs><g/><clipPath id="0bb96fb401"><path d="M 49 10.914062 L 69.332031 10.914062 L 69.332031 18 L 49 18 Z M 49 10.914062 " clip-rule="nonzero"/></clipPath><clipPath id="86d3ccef70"><path d="M 47.339844 17 L 69 17 L 69 23.015625 L 47.339844 23.015625 Z M 47.339844 17 " clip-rule="nonzero"/></clipPath></defs><g clip-path="url(#0bb96fb401)"><path fill="#828fa3" d="M 49.253906 17.445312 L 52.820312 17.445312 L 55.625 13.894531 L 52.058594 13.894531 Z M 67.230469 8.214844 L 59.765625 17.445312 L 63.332031 17.445312 L 70.796875 8.214844 Z M 60.085938 10.535156 L 54.511719 17.445312 L 58.074219 17.445312 L 63.652344 10.535156 L 60.085938 10.535156 " fill-opacity="1" fill-rule="nonzero"/></g><g clip-path="url(#86d3ccef70)"><path fill="#635fc7" d="M 68.589844 17.445312 L 65.023438 17.445312 L 62.21875 20.996094 L 65.78125 20.996094 Z M 50.613281 26.679688 L 58.074219 17.445312 L 54.511719 17.445312 L 47.046875 26.679688 Z M 57.757812 24.359375 L 63.332031 17.445312 L 59.765625 17.445312 L 54.191406 24.359375 L 57.757812 24.359375 " fill-opacity="1" fill-rule="nonzero"/></g><g fill="#000000" fill-opacity="1"><g transform="translate(71.512843, 19.315917)"><g><path d="M 0.4375 -6.703125 L 4.625 -6.703125 L 4.625 -5.390625 L 1.875 -5.390625 L 1.875 -4.1875 L 4.296875 -4.1875 L 4.296875 -2.890625 L 1.875 -2.890625 L 1.875 0 L 0.4375 0 Z M 0.4375 -6.703125 "/></g></g></g><g fill="#000000" fill-opacity="1"><g transform="translate(76.075172, 19.315917)"><g><path d="M 1.84375 0 L 0.53125 0 L 0.53125 -4.6875 L 1.84375 -4.6875 Z M 1.1875 -5.328125 C 0.988281 -5.328125 0.816406 -5.394531 0.671875 -5.53125 C 0.535156 -5.675781 0.46875 -5.847656 0.46875 -6.046875 C 0.46875 -6.253906 0.535156 -6.425781 0.671875 -6.5625 C 0.816406 -6.707031 0.988281 -6.78125 1.1875 -6.78125 C 1.394531 -6.78125 1.566406 -6.707031 1.703125 -6.5625 C 1.835938 -6.425781 1.90625 -6.253906 1.90625 -6.046875 C 1.90625 -5.847656 1.835938 -5.675781 1.703125 -5.53125 C 1.566406 -5.394531 1.394531 -5.328125 1.1875 -5.328125 Z M 1.1875 -5.328125 "/></g></g></g><g fill="#000000" fill-opacity="1"><g transform="translate(78.276047, 19.315917)"><g><path d="M 2.859375 -4.6875 C 3.035156 -4.6875 3.226562 -4.660156 3.4375 -4.609375 C 3.65625 -4.554688 3.859375 -4.460938 4.046875 -4.328125 C 4.242188 -4.191406 4.40625 -4 4.53125 -3.75 C 4.65625 -3.507812 4.71875 -3.191406 4.71875 -2.796875 L 4.71875 0 L 3.40625 0 L 3.40625 -2.75 C 3.40625 -2.894531 3.378906 -3.015625 3.328125 -3.109375 C 3.285156 -3.210938 3.222656 -3.296875 3.140625 -3.359375 C 3.066406 -3.421875 2.976562 -3.460938 2.875 -3.484375 C 2.78125 -3.515625 2.679688 -3.53125 2.578125 -3.53125 C 2.492188 -3.53125 2.40625 -3.515625 2.3125 -3.484375 C 2.21875 -3.460938 2.125 -3.421875 2.03125 -3.359375 C 1.945312 -3.296875 1.875 -3.210938 1.8125 -3.109375 C 1.757812 -3.003906 1.734375 -2.882812 1.734375 -2.75 L 1.734375 0 L 0.4375 0 L 0.4375 -4.6875 L 1.546875 -4.6875 L 1.734375 -4.328125 C 1.890625 -4.429688 2.0625 -4.515625 2.25 -4.578125 C 2.4375 -4.648438 2.640625 -4.6875 2.859375 -4.6875 Z M 2.859375 -4.6875 "/></g></g></g><g fill="#000000" fill-opacity="1"><g transform="translate(83.197319, 19.315917)"><g><path d="M 1.875 -1.296875 L 4.625 -1.296875 L 4.625 0 L 0.4375 0 L 0.4375 -6.703125 L 1.875 -6.703125 Z M 1.875 -1.296875 "/></g></g></g><g fill="#000000" fill-opacity="1"><g transform="translate(87.731311, 19.315917)"><g><path d="M 1.84375 0 L 0.53125 0 L 0.53125 -4.6875 L 1.84375 -4.6875 Z M 1.1875 -5.328125 C 0.988281 -5.328125 0.816406 -5.394531 0.671875 -5.53125 C 0.535156 -5.675781 0.46875 -5.847656 0.46875 -6.046875 C 0.46875 -6.253906 0.535156 -6.425781 0.671875 -6.5625 C 0.816406 -6.707031 0.988281 -6.78125 1.1875 -6.78125 C 1.394531 -6.78125 1.566406 -6.707031 1.703125 -6.5625 C 1.835938 -6.425781 1.90625 -6.253906 1.90625 -6.046875 C 1.90625 -5.847656 1.835938 -5.675781 1.703125 -5.53125 C 1.566406 -5.394531 1.394531 -5.328125 1.1875 -5.328125 Z M 1.1875 -5.328125 "/></g></g></g><g fill="#000000" fill-opacity="1"><g transform="translate(89.932186, 19.315917)"><g><path d="M 2.859375 -4.6875 C 3.035156 -4.6875 3.226562 -4.660156 3.4375 -4.609375 C 3.65625 -4.554688 3.859375 -4.460938 4.046875 -4.328125 C 4.242188 -4.191406 4.40625 -4 4.53125 -3.75 C 4.65625 -3.507812 4.71875 -3.191406 4.71875 -2.796875 L 4.71875 0 L 3.40625 0 L 3.40625 -2.75 C 3.40625 -2.894531 3.378906 -3.015625 3.328125 -3.109375 C 3.285156 -3.210938 3.222656 -3.296875 3.140625 -3.359375 C 3.066406 -3.421875 2.976562 -3.460938 2.875 -3.484375 C 2.78125 -3.515625 2.679688 -3.53125 2.578125 -3.53125 C 2.492188 -3.53125 2.40625 -3.515625 2.3125 -3.484375 C 2.21875 -3.460938 2.125 -3.421875 2.03125 -3.359375 C 1.945312 -3.296875 1.875 -3.210938 1.8125 -3.109375 C 1.757812 -3.003906 1.734375 -2.882812 1.734375 -2.75 L 1.734375 0 L 0.4375 0 L 0.4375 -4.6875 L 1.546875 -4.6875 L 1.734375 -4.328125 C 1.890625 -4.429688 2.0625 -4.515625 2.25 -4.578125 C 2.4375 -4.648438 2.640625 -4.6875 2.859375 -4.6875 Z M 2.859375 -4.6875 "/></g></g></g><g fill="#000000" fill-opacity="1"><g transform="translate(94.853458, 19.315917)"><g><path d="M 4.109375 -4.6875 L 5.21875 -4.6875 L 5.21875 -1.59375 C 5.21875 -1.226562 5.210938 -0.90625 5.203125 -0.625 C 5.191406 -0.34375 5.164062 -0.09375 5.125 0.125 C 5.09375 0.351562 5.035156 0.554688 4.953125 0.734375 C 4.867188 0.910156 4.75 1.070312 4.59375 1.21875 C 4.3125 1.488281 4 1.671875 3.65625 1.765625 C 3.3125 1.867188 2.953125 1.921875 2.578125 1.921875 C 2.253906 1.921875 1.953125 1.882812 1.671875 1.8125 C 1.390625 1.738281 1.132812 1.632812 0.90625 1.5 L 0.90625 0.28125 C 0.96875 0.375 1.046875 0.453125 1.140625 0.515625 C 1.242188 0.585938 1.363281 0.648438 1.5 0.703125 C 1.644531 0.753906 1.789062 0.789062 1.9375 0.8125 C 2.09375 0.84375 2.25 0.859375 2.40625 0.859375 C 2.613281 0.859375 2.804688 0.832031 2.984375 0.78125 C 3.171875 0.726562 3.332031 0.640625 3.46875 0.515625 C 3.601562 0.398438 3.707031 0.25 3.78125 0.0625 C 3.863281 -0.113281 3.90625 -0.332031 3.90625 -0.59375 L 3.90625 -0.6875 C 3.726562 -0.519531 3.519531 -0.382812 3.28125 -0.28125 C 3.039062 -0.1875 2.78125 -0.140625 2.5 -0.140625 C 2.175781 -0.140625 1.878906 -0.203125 1.609375 -0.328125 C 1.347656 -0.453125 1.117188 -0.617188 0.921875 -0.828125 C 0.734375 -1.035156 0.582031 -1.28125 0.46875 -1.5625 C 0.351562 -1.851562 0.296875 -2.160156 0.296875 -2.484375 C 0.296875 -2.804688 0.351562 -3.109375 0.46875 -3.390625 C 0.582031 -3.671875 0.734375 -3.914062 0.921875 -4.125 C 1.117188 -4.34375 1.347656 -4.515625 1.609375 -4.640625 C 1.878906 -4.765625 2.175781 -4.828125 2.5 -4.828125 C 2.789062 -4.828125 3.054688 -4.785156 3.296875 -4.703125 C 3.535156 -4.617188 3.738281 -4.492188 3.90625 -4.328125 Z M 2.765625 -1.296875 C 2.960938 -1.296875 3.132812 -1.332031 3.28125 -1.40625 C 3.425781 -1.476562 3.546875 -1.570312 3.640625 -1.6875 C 3.734375 -1.800781 3.800781 -1.925781 3.84375 -2.0625 C 3.882812 -2.207031 3.90625 -2.347656 3.90625 -2.484375 C 3.90625 -2.617188 3.878906 -2.757812 3.828125 -2.90625 C 3.785156 -3.050781 3.71875 -3.175781 3.625 -3.28125 C 3.53125 -3.394531 3.410156 -3.484375 3.265625 -3.546875 C 3.117188 -3.617188 2.953125 -3.65625 2.765625 -3.65625 C 2.597656 -3.65625 2.441406 -3.625 2.296875 -3.5625 C 2.160156 -3.5 2.039062 -3.410156 1.9375 -3.296875 C 1.832031 -3.191406 1.75 -3.066406 1.6875 -2.921875 C 1.632812 -2.785156 1.609375 -2.640625 1.609375 -2.484375 C 1.609375 -2.316406 1.632812 -2.160156 1.6875 -2.015625 C 1.75 -1.878906 1.832031 -1.753906 1.9375 -1.640625 C 2.039062 -1.535156 2.160156 -1.453125 2.296875 -1.390625 C 2.441406 -1.328125 2.597656 -1.296875 2.765625 -1.296875 Z M 2.765625 -1.296875 "/></g></g></g><g fill="#000000" fill-opacity="1"><g transform="translate(100.265911, 19.315917)"><g><path d="M 2.734375 -4.828125 C 3.066406 -4.828125 3.378906 -4.757812 3.671875 -4.625 C 3.972656 -4.5 4.234375 -4.320312 4.453125 -4.09375 C 4.671875 -3.875 4.84375 -3.613281 4.96875 -3.3125 C 5.101562 -3.007812 5.171875 -2.691406 5.171875 -2.359375 C 5.171875 -2.015625 5.101562 -1.691406 4.96875 -1.390625 C 4.84375 -1.085938 4.671875 -0.828125 4.453125 -0.609375 C 4.234375 -0.390625 3.972656 -0.210938 3.671875 -0.078125 C 3.378906 0.046875 3.066406 0.109375 2.734375 0.109375 C 2.390625 0.109375 2.066406 0.046875 1.765625 -0.078125 C 1.472656 -0.210938 1.21875 -0.390625 1 -0.609375 C 0.78125 -0.828125 0.601562 -1.085938 0.46875 -1.390625 C 0.34375 -1.691406 0.28125 -2.015625 0.28125 -2.359375 C 0.28125 -2.691406 0.34375 -3.007812 0.46875 -3.3125 C 0.601562 -3.613281 0.78125 -3.875 1 -4.09375 C 1.21875 -4.320312 1.472656 -4.5 1.765625 -4.625 C 2.066406 -4.757812 2.390625 -4.828125 2.734375 -4.828125 Z M 2.734375 -1.03125 C 2.890625 -1.03125 3.035156 -1.0625 3.171875 -1.125 C 3.304688 -1.1875 3.425781 -1.269531 3.53125 -1.375 C 3.632812 -1.488281 3.710938 -1.625 3.765625 -1.78125 C 3.828125 -1.9375 3.859375 -2.109375 3.859375 -2.296875 C 3.859375 -2.484375 3.828125 -2.660156 3.765625 -2.828125 C 3.710938 -2.992188 3.632812 -3.132812 3.53125 -3.25 C 3.425781 -3.375 3.304688 -3.472656 3.171875 -3.546875 C 3.035156 -3.617188 2.890625 -3.65625 2.734375 -3.65625 C 2.578125 -3.65625 2.425781 -3.617188 2.28125 -3.546875 C 2.144531 -3.472656 2.023438 -3.375 1.921875 -3.25 C 1.816406 -3.132812 1.734375 -2.992188 1.671875 -2.828125 C 1.617188 -2.660156 1.59375 -2.484375 1.59375 -2.296875 C 1.59375 -2.109375 1.617188 -1.9375 1.671875 -1.78125 C 1.734375 -1.625 1.816406 -1.488281 1.921875 -1.375 C 2.023438 -1.269531 2.144531 -1.1875 2.28125 -1.125 C 2.425781 -1.0625 2.578125 -1.03125 2.734375 -1.03125 Z M 2.734375 -1.03125 "/></g></g></g></svg>