<svg xmlns="http://www.w3.org/2000/svg" width="100" zoomAndPan="magnify" viewBox="0 0 75 37.5" height="50"
     preserveAspectRatio="xMidYMid meet" version="1.0"><defs><g/><clipPath id="acf1256b51"><path d="M 2 10.367188 L 17.902344 10.367188 L 17.902344 16 L 2 16 Z M 2 10.367188 " clip-rule="nonzero"/></clipPath><clipPath id="bbc881d6ed"><path d="M 0.492188 15 L 17.902344 15 L 17.902344 19.949219 L 0.492188 19.949219 Z M 0.492188 15 " clip-rule="nonzero"/></clipPath></defs><g clip-path="url(#acf1256b51)"><path fill="#828fa3" d="M 2.007812 15.535156 L 4.828125 15.535156 L 7.050781 12.726562 L 4.230469 12.726562 Z M 16.238281 8.226562 L 10.332031 15.535156 L 13.152344 15.535156 L 19.0625 8.226562 Z M 10.582031 10.066406 L 6.167969 15.535156 L 8.992188 15.535156 L 13.40625 10.066406 L 10.582031 10.066406 " fill-opacity="1" fill-rule="nonzero"/></g><g clip-path="url(#bbc881d6ed)"><path fill="#635fc7" d="M 17.316406 15.539062 L 14.492188 15.539062 L 12.269531 18.347656 L 15.09375 18.347656 Z M 3.082031 22.847656 L 8.992188 15.539062 L 6.167969 15.539062 L 0.261719 22.847656 Z M 8.738281 21.007812 L 13.152344 15.539062 L 10.332031 15.539062 L 5.917969 21.007812 L 8.738281 21.007812 " fill-opacity="1" fill-rule="nonzero"/></g><g fill="#000000" fill-opacity="1"><g transform="translate(19.628355, 17.017367)"><g><path d="M 0.359375 -5.3125 L 3.671875 -5.3125 L 3.671875 -4.28125 L 1.484375 -4.28125 L 1.484375 -3.3125 L 3.40625 -3.3125 L 3.40625 -2.28125 L 1.484375 -2.28125 L 1.484375 0 L 0.359375 0 Z M 0.359375 -5.3125 "/></g></g></g><g fill="#000000" fill-opacity="1"><g transform="translate(23.240075, 17.017367)"><g><path d="M 1.453125 0 L 0.421875 0 L 0.421875 -3.71875 L 1.453125 -3.71875 Z M 0.9375 -4.21875 C 0.78125 -4.21875 0.644531 -4.269531 0.53125 -4.375 C 0.425781 -4.488281 0.375 -4.628906 0.375 -4.796875 C 0.375 -4.953125 0.425781 -5.082031 0.53125 -5.1875 C 0.644531 -5.300781 0.78125 -5.359375 0.9375 -5.359375 C 1.101562 -5.359375 1.238281 -5.300781 1.34375 -5.1875 C 1.457031 -5.082031 1.515625 -4.953125 1.515625 -4.796875 C 1.515625 -4.628906 1.457031 -4.488281 1.34375 -4.375 C 1.238281 -4.269531 1.101562 -4.21875 0.9375 -4.21875 Z M 0.9375 -4.21875 "/></g></g></g><g fill="#000000" fill-opacity="1"><g transform="translate(24.982375, 17.017367)"><g><path d="M 2.265625 -3.71875 C 2.410156 -3.71875 2.566406 -3.695312 2.734375 -3.65625 C 2.898438 -3.613281 3.054688 -3.535156 3.203125 -3.421875 C 3.359375 -3.316406 3.488281 -3.164062 3.59375 -2.96875 C 3.695312 -2.769531 3.75 -2.519531 3.75 -2.21875 L 3.75 0 L 2.703125 0 L 2.703125 -2.171875 C 2.703125 -2.285156 2.679688 -2.382812 2.640625 -2.46875 C 2.609375 -2.550781 2.5625 -2.613281 2.5 -2.65625 C 2.4375 -2.707031 2.363281 -2.742188 2.28125 -2.765625 C 2.195312 -2.785156 2.117188 -2.796875 2.046875 -2.796875 C 1.984375 -2.796875 1.910156 -2.785156 1.828125 -2.765625 C 1.753906 -2.742188 1.679688 -2.707031 1.609375 -2.65625 C 1.546875 -2.601562 1.488281 -2.535156 1.4375 -2.453125 C 1.394531 -2.378906 1.375 -2.285156 1.375 -2.171875 L 1.375 0 L 0.34375 0 L 0.34375 -3.71875 L 1.234375 -3.71875 L 1.375 -3.421875 C 1.5 -3.515625 1.632812 -3.585938 1.78125 -3.640625 C 1.925781 -3.691406 2.085938 -3.71875 2.265625 -3.71875 Z M 2.265625 -3.71875 "/></g></g></g><g fill="#000000" fill-opacity="1"><g transform="translate(28.878249, 17.017367)"><g><path d="M 1.484375 -1.03125 L 3.671875 -1.03125 L 3.671875 0 L 0.359375 0 L 0.359375 -5.3125 L 1.484375 -5.3125 Z M 1.484375 -1.03125 "/></g></g></g><g fill="#000000" fill-opacity="1"><g transform="translate(32.467536, 17.017367)"><g><path d="M 1.453125 0 L 0.421875 0 L 0.421875 -3.71875 L 1.453125 -3.71875 Z M 0.9375 -4.21875 C 0.78125 -4.21875 0.644531 -4.269531 0.53125 -4.375 C 0.425781 -4.488281 0.375 -4.628906 0.375 -4.796875 C 0.375 -4.953125 0.425781 -5.082031 0.53125 -5.1875 C 0.644531 -5.300781 0.78125 -5.359375 0.9375 -5.359375 C 1.101562 -5.359375 1.238281 -5.300781 1.34375 -5.1875 C 1.457031 -5.082031 1.515625 -4.953125 1.515625 -4.796875 C 1.515625 -4.628906 1.457031 -4.488281 1.34375 -4.375 C 1.238281 -4.269531 1.101562 -4.21875 0.9375 -4.21875 Z M 0.9375 -4.21875 "/></g></g></g><g fill="#000000" fill-opacity="1"><g transform="translate(34.209836, 17.017367)"><g><path d="M 2.265625 -3.71875 C 2.410156 -3.71875 2.566406 -3.695312 2.734375 -3.65625 C 2.898438 -3.613281 3.054688 -3.535156 3.203125 -3.421875 C 3.359375 -3.316406 3.488281 -3.164062 3.59375 -2.96875 C 3.695312 -2.769531 3.75 -2.519531 3.75 -2.21875 L 3.75 0 L 2.703125 0 L 2.703125 -2.171875 C 2.703125 -2.285156 2.679688 -2.382812 2.640625 -2.46875 C 2.609375 -2.550781 2.5625 -2.613281 2.5 -2.65625 C 2.4375 -2.707031 2.363281 -2.742188 2.28125 -2.765625 C 2.195312 -2.785156 2.117188 -2.796875 2.046875 -2.796875 C 1.984375 -2.796875 1.910156 -2.785156 1.828125 -2.765625 C 1.753906 -2.742188 1.679688 -2.707031 1.609375 -2.65625 C 1.546875 -2.601562 1.488281 -2.535156 1.4375 -2.453125 C 1.394531 -2.378906 1.375 -2.285156 1.375 -2.171875 L 1.375 0 L 0.34375 0 L 0.34375 -3.71875 L 1.234375 -3.71875 L 1.375 -3.421875 C 1.5 -3.515625 1.632812 -3.585938 1.78125 -3.640625 C 1.925781 -3.691406 2.085938 -3.71875 2.265625 -3.71875 Z M 2.265625 -3.71875 "/></g></g></g><g fill="#000000" fill-opacity="1"><g transform="translate(38.10571, 17.017367)"><g><path d="M 3.25 -3.71875 L 4.125 -3.71875 L 4.125 -1.25 C 4.125 -0.96875 4.117188 -0.71875 4.109375 -0.5 C 4.109375 -0.28125 4.09375 -0.0820312 4.0625 0.09375 C 4.03125 0.269531 3.976562 0.425781 3.90625 0.5625 C 3.84375 0.707031 3.753906 0.84375 3.640625 0.96875 C 3.421875 1.175781 3.175781 1.320312 2.90625 1.40625 C 2.632812 1.488281 2.347656 1.53125 2.046875 1.53125 C 1.785156 1.53125 1.539062 1.5 1.3125 1.4375 C 1.09375 1.375 0.894531 1.289062 0.71875 1.1875 L 0.71875 0.21875 C 0.757812 0.289062 0.820312 0.351562 0.90625 0.40625 C 0.988281 0.46875 1.082031 0.515625 1.1875 0.546875 C 1.300781 0.585938 1.414062 0.617188 1.53125 0.640625 C 1.65625 0.671875 1.78125 0.6875 1.90625 0.6875 C 2.070312 0.6875 2.226562 0.660156 2.375 0.609375 C 2.519531 0.566406 2.644531 0.5 2.75 0.40625 C 2.851562 0.3125 2.9375 0.191406 3 0.046875 C 3.0625 -0.0859375 3.09375 -0.257812 3.09375 -0.46875 L 3.09375 -0.53125 C 2.945312 -0.40625 2.78125 -0.300781 2.59375 -0.21875 C 2.40625 -0.144531 2.195312 -0.109375 1.96875 -0.109375 C 1.726562 -0.109375 1.5 -0.15625 1.28125 -0.25 C 1.070312 -0.351562 0.890625 -0.488281 0.734375 -0.65625 C 0.578125 -0.820312 0.453125 -1.019531 0.359375 -1.25 C 0.273438 -1.476562 0.234375 -1.71875 0.234375 -1.96875 C 0.234375 -2.21875 0.273438 -2.457031 0.359375 -2.6875 C 0.453125 -2.914062 0.578125 -3.113281 0.734375 -3.28125 C 0.890625 -3.445312 1.070312 -3.578125 1.28125 -3.671875 C 1.5 -3.765625 1.726562 -3.8125 1.96875 -3.8125 C 2.207031 -3.8125 2.421875 -3.78125 2.609375 -3.71875 C 2.796875 -3.65625 2.957031 -3.554688 3.09375 -3.421875 Z M 2.1875 -1.03125 C 2.34375 -1.03125 2.476562 -1.054688 2.59375 -1.109375 C 2.707031 -1.171875 2.800781 -1.242188 2.875 -1.328125 C 2.957031 -1.421875 3.015625 -1.519531 3.046875 -1.625 C 3.078125 -1.738281 3.09375 -1.847656 3.09375 -1.953125 C 3.09375 -2.078125 3.070312 -2.191406 3.03125 -2.296875 C 3 -2.410156 2.945312 -2.507812 2.875 -2.59375 C 2.800781 -2.6875 2.707031 -2.757812 2.59375 -2.8125 C 2.476562 -2.863281 2.34375 -2.890625 2.1875 -2.890625 C 2.050781 -2.890625 1.925781 -2.863281 1.8125 -2.8125 C 1.707031 -2.769531 1.613281 -2.707031 1.53125 -2.625 C 1.457031 -2.539062 1.394531 -2.441406 1.34375 -2.328125 C 1.289062 -2.210938 1.265625 -2.085938 1.265625 -1.953125 C 1.265625 -1.828125 1.289062 -1.707031 1.34375 -1.59375 C 1.394531 -1.476562 1.457031 -1.378906 1.53125 -1.296875 C 1.613281 -1.210938 1.707031 -1.144531 1.8125 -1.09375 C 1.925781 -1.050781 2.050781 -1.03125 2.1875 -1.03125 Z M 2.1875 -1.03125 "/></g></g></g><g fill="#000000" fill-opacity="1"><g transform="translate(42.390422, 17.017367)"><g><path d="M 2.15625 -3.8125 C 2.425781 -3.8125 2.675781 -3.757812 2.90625 -3.65625 C 3.144531 -3.5625 3.347656 -3.425781 3.515625 -3.25 C 3.691406 -3.070312 3.832031 -2.863281 3.9375 -2.625 C 4.039062 -2.382812 4.09375 -2.128906 4.09375 -1.859375 C 4.09375 -1.585938 4.039062 -1.332031 3.9375 -1.09375 C 3.832031 -0.863281 3.691406 -0.660156 3.515625 -0.484375 C 3.347656 -0.304688 3.144531 -0.164062 2.90625 -0.0625 C 2.675781 0.0390625 2.425781 0.09375 2.15625 0.09375 C 1.894531 0.09375 1.644531 0.0390625 1.40625 -0.0625 C 1.175781 -0.164062 0.972656 -0.304688 0.796875 -0.484375 C 0.617188 -0.660156 0.476562 -0.863281 0.375 -1.09375 C 0.269531 -1.332031 0.21875 -1.585938 0.21875 -1.859375 C 0.21875 -2.128906 0.269531 -2.382812 0.375 -2.625 C 0.476562 -2.863281 0.617188 -3.070312 0.796875 -3.25 C 0.972656 -3.425781 1.175781 -3.5625 1.40625 -3.65625 C 1.644531 -3.757812 1.894531 -3.8125 2.15625 -3.8125 Z M 2.15625 -0.8125 C 2.28125 -0.8125 2.394531 -0.835938 2.5 -0.890625 C 2.613281 -0.941406 2.710938 -1.007812 2.796875 -1.09375 C 2.878906 -1.1875 2.941406 -1.289062 2.984375 -1.40625 C 3.035156 -1.53125 3.0625 -1.664062 3.0625 -1.8125 C 3.0625 -1.96875 3.035156 -2.109375 2.984375 -2.234375 C 2.941406 -2.367188 2.878906 -2.484375 2.796875 -2.578125 C 2.710938 -2.671875 2.613281 -2.742188 2.5 -2.796875 C 2.394531 -2.859375 2.28125 -2.890625 2.15625 -2.890625 C 2.03125 -2.890625 1.910156 -2.859375 1.796875 -2.796875 C 1.691406 -2.742188 1.597656 -2.671875 1.515625 -2.578125 C 1.441406 -2.484375 1.378906 -2.367188 1.328125 -2.234375 C 1.273438 -2.109375 1.25 -1.96875 1.25 -1.8125 C 1.25 -1.664062 1.273438 -1.53125 1.328125 -1.40625 C 1.378906 -1.289062 1.441406 -1.1875 1.515625 -1.09375 C 1.597656 -1.007812 1.691406 -0.941406 1.796875 -0.890625 C 1.910156 -0.835938 2.03125 -0.8125 2.15625 -0.8125 Z M 2.15625 -0.8125 "/></g></g></g></svg>