<svg xmlns="http://www.w3.org/2000/svg" xmlns:xlink="http://www.w3.org/1999/xlink" width="250" zoomAndPan="magnify" viewBox="0 0 187.5 149.999998" height="200" preserveAspectRatio="xMidYMid meet" version="1.0"><defs><g/><clipPath id="7b2a697cad"><path d="M 32 55.0625 L 78.378906 55.0625 L 78.378906 70 L 32 70 Z M 32 55.0625 " clip-rule="nonzero"/></clipPath><clipPath id="a105ac4d9c"><path d="M 28.664062 69 L 77 69 L 77 82.421875 L 28.664062 82.421875 Z M 28.664062 69 " clip-rule="nonzero"/></clipPath></defs><g clip-path="url(#7b2a697cad)"><path fill="#828fa3" d="M 32.984375 69.824219 L 41.046875 69.824219 L 47.394531 61.796875 L 39.332031 61.796875 Z M 73.625 48.953125 L 56.753906 69.824219 L 64.816406 69.824219 L 81.6875 48.953125 Z M 57.472656 54.199219 L 44.867188 69.824219 L 52.929688 69.824219 L 65.53125 54.199219 L 57.472656 54.199219 " fill-opacity="1" fill-rule="nonzero"/></g><g clip-path="url(#a105ac4d9c)"><path fill="#635fc7" d="M 76.699219 69.824219 L 68.640625 69.824219 L 62.292969 77.855469 L 70.351562 77.855469 Z M 36.058594 90.695312 L 52.929688 69.824219 L 44.867188 69.824219 L 28 90.695312 Z M 52.214844 85.453125 L 64.816406 69.824219 L 56.753906 69.824219 L 44.152344 85.453125 L 52.214844 85.453125 " fill-opacity="1" fill-rule="nonzero"/></g><g fill="#000000" fill-opacity="1"><g transform="translate(83.306409, 74.053028)"><g><path d="M 1 -15.140625 L 10.46875 -15.140625 L 10.46875 -12.203125 L 4.25 -12.203125 L 4.25 -9.46875 L 9.71875 -9.46875 L 9.71875 -6.515625 L 4.25 -6.515625 L 4.25 0 L 1 0 Z M 1 -15.140625 "/></g></g></g><g fill="#000000" fill-opacity="1"><g transform="translate(93.620245, 74.053028)"><g><path d="M 4.171875 0 L 1.21875 0 L 1.21875 -10.59375 L 4.171875 -10.59375 Z M 2.6875 -12.046875 C 2.226562 -12.046875 1.84375 -12.203125 1.53125 -12.515625 C 1.21875 -12.828125 1.0625 -13.210938 1.0625 -13.671875 C 1.0625 -14.128906 1.21875 -14.515625 1.53125 -14.828125 C 1.84375 -15.148438 2.226562 -15.3125 2.6875 -15.3125 C 3.144531 -15.3125 3.53125 -15.148438 3.84375 -14.828125 C 4.15625 -14.515625 4.3125 -14.128906 4.3125 -13.671875 C 4.3125 -13.210938 4.15625 -12.828125 3.84375 -12.515625 C 3.53125 -12.203125 3.144531 -12.046875 2.6875 -12.046875 Z M 2.6875 -12.046875 "/></g></g></g><g fill="#000000" fill-opacity="1"><g transform="translate(98.595657, 74.053028)"><g><path d="M 6.46875 -10.59375 C 6.863281 -10.59375 7.300781 -10.535156 7.78125 -10.421875 C 8.269531 -10.304688 8.726562 -10.09375 9.15625 -9.78125 C 9.582031 -9.46875 9.941406 -9.03125 10.234375 -8.46875 C 10.535156 -7.914062 10.6875 -7.203125 10.6875 -6.328125 L 10.6875 0 L 7.703125 0 L 7.703125 -6.21875 C 7.703125 -6.539062 7.648438 -6.816406 7.546875 -7.046875 C 7.441406 -7.273438 7.300781 -7.457031 7.125 -7.59375 C 6.945312 -7.726562 6.742188 -7.828125 6.515625 -7.890625 C 6.285156 -7.953125 6.054688 -7.984375 5.828125 -7.984375 C 5.640625 -7.984375 5.4375 -7.953125 5.21875 -7.890625 C 5 -7.828125 4.789062 -7.722656 4.59375 -7.578125 C 4.40625 -7.441406 4.25 -7.257812 4.125 -7.03125 C 4 -6.800781 3.9375 -6.53125 3.9375 -6.21875 L 3.9375 0 L 0.984375 0 L 0.984375 -10.59375 L 3.5 -10.59375 L 3.9375 -9.78125 C 4.269531 -10.019531 4.648438 -10.210938 5.078125 -10.359375 C 5.503906 -10.515625 5.96875 -10.59375 6.46875 -10.59375 Z M 6.46875 -10.59375 "/></g></g></g><g fill="#000000" fill-opacity="1"><g transform="translate(109.720939, 74.053028)"><g><path d="M 4.25 -2.921875 L 10.46875 -2.921875 L 10.46875 0 L 1 0 L 1 -15.140625 L 4.25 -15.140625 Z M 4.25 -2.921875 "/></g></g></g><g fill="#000000" fill-opacity="1"><g transform="translate(119.970714, 74.053028)"><g><path d="M 4.171875 0 L 1.21875 0 L 1.21875 -10.59375 L 4.171875 -10.59375 Z M 2.6875 -12.046875 C 2.226562 -12.046875 1.84375 -12.203125 1.53125 -12.515625 C 1.21875 -12.828125 1.0625 -13.210938 1.0625 -13.671875 C 1.0625 -14.128906 1.21875 -14.515625 1.53125 -14.828125 C 1.84375 -15.148438 2.226562 -15.3125 2.6875 -15.3125 C 3.144531 -15.3125 3.53125 -15.148438 3.84375 -14.828125 C 4.15625 -14.515625 4.3125 -14.128906 4.3125 -13.671875 C 4.3125 -13.210938 4.15625 -12.828125 3.84375 -12.515625 C 3.53125 -12.203125 3.144531 -12.046875 2.6875 -12.046875 Z M 2.6875 -12.046875 "/></g></g></g><g fill="#000000" fill-opacity="1"><g transform="translate(124.946126, 74.053028)"><g><path d="M 6.46875 -10.59375 C 6.863281 -10.59375 7.300781 -10.535156 7.78125 -10.421875 C 8.269531 -10.304688 8.726562 -10.09375 9.15625 -9.78125 C 9.582031 -9.46875 9.941406 -9.03125 10.234375 -8.46875 C 10.535156 -7.914062 10.6875 -7.203125 10.6875 -6.328125 L 10.6875 0 L 7.703125 0 L 7.703125 -6.21875 C 7.703125 -6.539062 7.648438 -6.816406 7.546875 -7.046875 C 7.441406 -7.273438 7.300781 -7.457031 7.125 -7.59375 C 6.945312 -7.726562 6.742188 -7.828125 6.515625 -7.890625 C 6.285156 -7.953125 6.054688 -7.984375 5.828125 -7.984375 C 5.640625 -7.984375 5.4375 -7.953125 5.21875 -7.890625 C 5 -7.828125 4.789062 -7.722656 4.59375 -7.578125 C 4.40625 -7.441406 4.25 -7.257812 4.125 -7.03125 C 4 -6.800781 3.9375 -6.53125 3.9375 -6.21875 L 3.9375 0 L 0.984375 0 L 0.984375 -10.59375 L 3.5 -10.59375 L 3.9375 -9.78125 C 4.269531 -10.019531 4.648438 -10.210938 5.078125 -10.359375 C 5.503906 -10.515625 5.96875 -10.59375 6.46875 -10.59375 Z M 6.46875 -10.59375 "/></g></g></g><g fill="#000000" fill-opacity="1"><g transform="translate(136.071407, 74.053028)"><g><path d="M 9.265625 -10.59375 L 11.796875 -10.59375 L 11.796875 -3.59375 C 11.796875 -2.78125 11.78125 -2.054688 11.75 -1.421875 C 11.726562 -0.785156 11.675781 -0.21875 11.59375 0.28125 C 11.507812 0.789062 11.367188 1.242188 11.171875 1.640625 C 10.984375 2.046875 10.71875 2.414062 10.375 2.75 C 9.75 3.363281 9.046875 3.785156 8.265625 4.015625 C 7.492188 4.242188 6.679688 4.359375 5.828125 4.359375 C 5.097656 4.359375 4.410156 4.269531 3.765625 4.09375 C 3.128906 3.925781 2.554688 3.691406 2.046875 3.390625 L 2.046875 0.640625 C 2.179688 0.835938 2.363281 1.015625 2.59375 1.171875 C 2.832031 1.328125 3.101562 1.460938 3.40625 1.578125 C 3.707031 1.691406 4.03125 1.78125 4.375 1.84375 C 4.726562 1.90625 5.085938 1.9375 5.453125 1.9375 C 5.921875 1.9375 6.359375 1.875 6.765625 1.75 C 7.179688 1.632812 7.539062 1.441406 7.84375 1.171875 C 8.15625 0.898438 8.398438 0.5625 8.578125 0.15625 C 8.753906 -0.25 8.84375 -0.742188 8.84375 -1.328125 L 8.84375 -1.53125 C 8.425781 -1.164062 7.945312 -0.875 7.40625 -0.65625 C 6.863281 -0.4375 6.273438 -0.328125 5.640625 -0.328125 C 4.929688 -0.328125 4.269531 -0.460938 3.65625 -0.734375 C 3.050781 -1.015625 2.53125 -1.390625 2.09375 -1.859375 C 1.65625 -2.335938 1.3125 -2.898438 1.0625 -3.546875 C 0.8125 -4.203125 0.6875 -4.894531 0.6875 -5.625 C 0.6875 -6.34375 0.8125 -7.019531 1.0625 -7.65625 C 1.3125 -8.300781 1.65625 -8.863281 2.09375 -9.34375 C 2.53125 -9.820312 3.050781 -10.195312 3.65625 -10.46875 C 4.269531 -10.75 4.929688 -10.890625 5.640625 -10.890625 C 6.304688 -10.890625 6.910156 -10.800781 7.453125 -10.625 C 7.992188 -10.445312 8.457031 -10.164062 8.84375 -9.78125 Z M 6.234375 -2.953125 C 6.691406 -2.953125 7.082031 -3.03125 7.40625 -3.1875 C 7.738281 -3.351562 8.007812 -3.5625 8.21875 -3.8125 C 8.4375 -4.070312 8.59375 -4.359375 8.6875 -4.671875 C 8.789062 -4.984375 8.84375 -5.289062 8.84375 -5.59375 C 8.84375 -5.925781 8.785156 -6.25 8.671875 -6.5625 C 8.566406 -6.882812 8.40625 -7.171875 8.1875 -7.421875 C 7.976562 -7.671875 7.710938 -7.875 7.390625 -8.03125 C 7.066406 -8.1875 6.679688 -8.265625 6.234375 -8.265625 C 5.867188 -8.265625 5.523438 -8.191406 5.203125 -8.046875 C 4.890625 -7.910156 4.613281 -7.71875 4.375 -7.46875 C 4.144531 -7.226562 3.960938 -6.945312 3.828125 -6.625 C 3.691406 -6.3125 3.625 -5.96875 3.625 -5.59375 C 3.625 -5.226562 3.691406 -4.882812 3.828125 -4.5625 C 3.960938 -4.238281 4.144531 -3.957031 4.375 -3.71875 C 4.613281 -3.476562 4.890625 -3.289062 5.203125 -3.15625 C 5.523438 -3.019531 5.867188 -2.953125 6.234375 -2.953125 Z M 6.234375 -2.953125 "/></g></g></g><g fill="#000000" fill-opacity="1"><g transform="translate(148.307078, 74.053028)"><g><path d="M 6.171875 -10.890625 C 6.929688 -10.890625 7.644531 -10.742188 8.3125 -10.453125 C 8.976562 -10.160156 9.5625 -9.757812 10.0625 -9.25 C 10.5625 -8.75 10.957031 -8.160156 11.25 -7.484375 C 11.539062 -6.804688 11.6875 -6.082031 11.6875 -5.3125 C 11.6875 -4.550781 11.539062 -3.832031 11.25 -3.15625 C 10.957031 -2.476562 10.5625 -1.882812 10.0625 -1.375 C 9.5625 -0.875 8.976562 -0.476562 8.3125 -0.1875 C 7.644531 0.101562 6.929688 0.25 6.171875 0.25 C 5.398438 0.25 4.679688 0.101562 4.015625 -0.1875 C 3.347656 -0.476562 2.765625 -0.875 2.265625 -1.375 C 1.765625 -1.882812 1.367188 -2.476562 1.078125 -3.15625 C 0.785156 -3.832031 0.640625 -4.550781 0.640625 -5.3125 C 0.640625 -6.082031 0.785156 -6.804688 1.078125 -7.484375 C 1.367188 -8.160156 1.765625 -8.75 2.265625 -9.25 C 2.765625 -9.757812 3.347656 -10.160156 4.015625 -10.453125 C 4.679688 -10.742188 5.398438 -10.890625 6.171875 -10.890625 Z M 6.171875 -2.328125 C 6.523438 -2.328125 6.851562 -2.394531 7.15625 -2.53125 C 7.46875 -2.675781 7.738281 -2.875 7.96875 -3.125 C 8.207031 -3.375 8.394531 -3.671875 8.53125 -4.015625 C 8.664062 -4.367188 8.734375 -4.757812 8.734375 -5.1875 C 8.734375 -5.613281 8.664062 -6.007812 8.53125 -6.375 C 8.394531 -6.75 8.207031 -7.078125 7.96875 -7.359375 C 7.738281 -7.640625 7.46875 -7.859375 7.15625 -8.015625 C 6.851562 -8.179688 6.523438 -8.265625 6.171875 -8.265625 C 5.816406 -8.265625 5.484375 -8.179688 5.171875 -8.015625 C 4.859375 -7.859375 4.582031 -7.640625 4.34375 -7.359375 C 4.113281 -7.078125 3.929688 -6.75 3.796875 -6.375 C 3.660156 -6.007812 3.59375 -5.613281 3.59375 -5.1875 C 3.59375 -4.757812 3.660156 -4.367188 3.796875 -4.015625 C 3.929688 -3.671875 4.113281 -3.375 4.34375 -3.125 C 4.582031 -2.875 4.859375 -2.675781 5.171875 -2.53125 C 5.484375 -2.394531 5.816406 -2.328125 6.171875 -2.328125 Z M 6.171875 -2.328125 "/></g></g></g></svg>